<?xml version="1.0" encoding="utf-8"?>
<!-- Generator: Adobe Illustrator 16.0.0, SVG Export Plug-In . SVG Version: 6.00 Build 0)  -->
<!DOCTYPE svg PUBLIC "-//W3C//DTD SVG 1.1//EN" "http://www.w3.org/Graphics/SVG/1.1/DTD/svg11.dtd">
<svg version="1.1" id="Isolation_Mode" xmlns="http://www.w3.org/2000/svg" xmlns:xlink="http://www.w3.org/1999/xlink" x="0px"
	 y="0px" width="613.376px" height="107.065px" viewBox="0 0 613.376 107.065" enable-background="new 0 0 613.376 107.065"
	 xml:space="preserve">
<g>
	<g>
		<g>
			<path fill="none" stroke="#CA797D" stroke-width="3" d="M0.75,99.443h26.577l29.9-34.938c2.646-3.15,5.111-6.125,7.4-8.925
				c2.289-2.795,4.271-5.515,5.95-8.162c1.679-2.644,2.998-5.236,3.967-7.78c0.965-2.54,1.448-5.186,1.448-7.932
				c0-5.39-1.729-9.509-5.188-12.358c-3.458-2.846-8.39-4.271-14.798-4.271c-4.881,0-9,0.56-12.358,1.679
				c-3.354,1.119-6.61,2.39-9.762,3.813c-0.815-2.033-1.603-4.119-2.365-6.256c-0.762-2.135-1.248-4.322-1.451-6.56
				c3.56-1.524,7.499-2.947,11.823-4.271C46.216,2.161,51.277,1.5,57.075,1.5c5.188,0,9.917,0.585,14.188,1.754
				c4.271,1.169,7.958,2.924,11.062,5.264c3.102,2.339,5.491,5.314,7.17,8.924s2.517,7.856,2.517,12.737
				c0,6.815-1.883,13.426-5.644,19.834c-3.765,6.408-9.104,13.527-16.019,21.357L55.703,88H96.13
				c0.203,1.121,0.357,2.238,0.458,3.357c0.102,1.121,0.152,2.288,0.152,3.509c0,1.119-0.051,2.238-0.152,3.357
				c-0.101,1.119-0.255,2.188-0.458,3.202h511.889"/>
			<g>
				<rect y="94.568" fill="#CA797D" width="1.5" height="9.75"/>
			</g>
			<g>
				<circle fill="#CA797D" cx="607.736" cy="101.426" r="5.64"/>
			</g>
		</g>
	</g>
</g>
</svg>
