<?xml version="1.0" encoding="utf-8"?>
<!-- Generator: Adobe Illustrator 16.0.0, SVG Export Plug-In . SVG Version: 6.00 Build 0)  -->
<!DOCTYPE svg PUBLIC "-//W3C//DTD SVG 1.1//EN" "http://www.w3.org/Graphics/SVG/1.1/DTD/svg11.dtd">
<svg version="1.1" id="Isolation_Mode" xmlns="http://www.w3.org/2000/svg" xmlns:xlink="http://www.w3.org/1999/xlink" x="0px"
	 y="0px" width="614.128px" height="116.842px" viewBox="0 0 614.128 116.842" enable-background="new 0 0 614.128 116.842"
	 xml:space="preserve">
<g>
	<g>
		<path fill="none" stroke="#CA797D" stroke-width="3" d="M62.422,55.595c-2.949,0-5.747,0.512-8.39,1.527
			c-2.646,1.018-4.935,2.516-6.864,4.501c-1.935,1.982-3.461,4.399-4.577,7.246c-1.121,2.848-1.679,6.102-1.679,9.763
			c0,7.628,1.805,13.326,5.415,17.087c3.61,3.765,8.621,5.646,15.029,5.646c3.051,0,5.873-0.509,8.466-1.527
			c2.593-1.015,4.856-2.491,6.788-4.423s3.458-4.321,4.577-7.17c1.119-2.846,1.679-6.152,1.679-9.917
			c0-4.065-0.534-7.526-1.603-10.375c-1.066-2.846-2.517-5.188-4.348-7.018c-1.83-1.831-3.992-3.178-6.483-4.041
			C67.938,56.03,65.271,55.595,62.422,55.595z"/>
	</g>
	<g>
		<g>
			<path fill="none" stroke="#CA797D" stroke-width="3" d="M0.75,111.967h45.426c-4.631-1.679-8.545-4.296-11.747-7.855
				c-3.203-3.561-5.672-8.112-7.4-13.656c-1.729-5.542-2.593-12.229-2.593-20.062c0-8.948,1.145-17.392,3.433-25.325
				c2.289-7.933,5.798-15.001,10.527-21.204S49.15,12.601,56.473,8.684C63.797,4.77,72.491,2.405,82.562,1.59
				c0.813,2.44,1.221,4.782,1.221,7.018c0,1.018-0.053,2.035-0.154,3.051c-0.102,1.018-0.253,1.932-0.456,2.747
				c-6.407,0.61-12.079,2.111-17.011,4.499c-4.934,2.392-9.18,5.468-12.739,9.23c-3.562,3.765-6.434,8.112-8.618,13.044
				c-2.19,4.934-3.739,10.198-4.653,15.791c2.235-3.866,5.514-7.195,9.838-9.993c4.322-2.798,9.74-4.195,16.249-4.195
				c4.066,0,8.059,0.686,11.976,2.058c3.914,1.372,7.4,3.486,10.451,6.332c3.051,2.849,5.491,6.483,7.321,10.907
				c1.831,4.425,2.747,9.688,2.747,15.79c0,6.003-1.043,11.289-3.127,15.866c-2.086,4.578-4.858,8.391-8.314,11.441
				c-2.367,2.09-4.96,3.832-7.778,5.229h529.258"/>
			<g>
				<rect y="107.092" fill="#CA797D" width="1.5" height="9.75"/>
			</g>
			<g>
				<circle fill="#CA797D" cx="608.488" cy="110.406" r="5.64"/>
			</g>
		</g>
	</g>
</g>
</svg>
