<?xml version="1.0" encoding="utf-8"?>
<!-- Generator: Adobe Illustrator 16.0.0, SVG Export Plug-In . SVG Version: 6.00 Build 0)  -->
<!DOCTYPE svg PUBLIC "-//W3C//DTD SVG 1.1//EN" "http://www.w3.org/Graphics/SVG/1.1/DTD/svg11.dtd">
<svg version="1.1" id="Isolation_Mode" xmlns="http://www.w3.org/2000/svg" xmlns:xlink="http://www.w3.org/1999/xlink" x="0px"
	 y="0px" width="608.043px" height="114.694px" viewBox="0 0 608.043 114.694" enable-background="new 0 0 608.043 114.694"
	 xml:space="preserve">
<g>
	<g>
		<g>
			<path fill="none" stroke="#CA797D" stroke-width="3" d="M0.75,109.819h39.315c-4.476-0.815-8.902-2.086-13.274-3.815
				c0.306-2.238,0.891-4.423,1.754-6.56c0.863-2.135,1.856-4.219,2.975-6.254c3.256,1.321,6.661,2.39,10.223,3.203
				c3.558,0.814,7.628,1.22,12.204,1.22c3.866,0,7.499-0.405,10.909-1.22c3.405-0.813,6.354-2.138,8.848-3.968
				c2.492-1.83,4.474-4.195,5.95-7.094c1.474-2.899,2.213-6.431,2.213-10.604c0-6.304-2.086-10.982-6.256-14.033
				c-4.172-3.054-9.611-4.577-16.325-4.577c-2.036,0-4.094,0.075-6.178,0.228c-2.086,0.151-4.145,0.483-6.178,0.992l-1.223-2.137
				l25.479-40.123H31.979c-0.408-2.033-0.61-4.219-0.61-6.56c0-1.117,0.051-2.289,0.152-3.51c0.102-1.22,0.253-2.388,0.458-3.509
				h61.788l1.068,1.831l-27.766,42.26c0.304-0.102,0.659-0.152,1.066-0.152c0.405,0,0.815,0,1.222,0
				c4.778,0,8.925,0.838,12.434,2.517c3.509,1.679,6.406,3.866,8.694,6.561c2.289,2.696,3.99,5.696,5.112,9
				c1.119,3.307,1.678,6.587,1.678,9.841c0,6.51-1.144,12.13-3.433,16.859c-2.289,4.729-5.365,8.646-9.23,11.744
				c-3.866,3.102-8.39,5.391-41.578,6.866h559.652"/>
			<g>
				<rect y="104.944" fill="#CA797D" width="1.5" height="9.75"/>
			</g>
			<g>
				<circle fill="#CA797D" cx="602.403" cy="108.826" r="5.64"/>
			</g>
		</g>
	</g>
</g>
</svg>
