<?xml version="1.0" encoding="utf-8"?>
<!-- Generator: Adobe Illustrator 16.0.0, SVG Export Plug-In . SVG Version: 6.00 Build 0)  -->
<!DOCTYPE svg PUBLIC "-//W3C//DTD SVG 1.1//EN" "http://www.w3.org/Graphics/SVG/1.1/DTD/svg11.dtd">
<svg version="1.1" id="Isolation_Mode" xmlns="http://www.w3.org/2000/svg" xmlns:xlink="http://www.w3.org/1999/xlink" x="0px"
	 y="0px" width="612.518px" height="117.378px" viewBox="0 0 612.518 117.378" enable-background="new 0 0 612.518 117.378"
	 xml:space="preserve">
<g>
	<g>
		<g>
			<path fill="none" stroke="#CA797D" stroke-width="3" d="M0.75,111.738h73.183v-20.9H21.91l-1.22-1.679L65.388,1.591
				c2.137,0.205,4.349,0.739,6.638,1.601c2.286,0.865,4.499,2.01,6.636,3.433L43.116,77.412h30.816V48.426
				c1.221-0.202,2.441-0.354,3.661-0.458c1.22-0.099,2.388-0.151,3.509-0.151c1.319,0,2.618,0.053,3.889,0.151
				c1.271,0.104,2.519,0.256,3.739,0.458v28.986h14.036c0.203,1.121,0.354,2.238,0.456,3.357c0.102,1.119,0.154,2.238,0.154,3.354
				c0,1.121-0.053,2.266-0.154,3.433c-0.101,1.172-0.253,2.266-0.456,3.281H88.731v20.9H607.16"/>
			<g>
				<rect y="106.863" fill="#CA797D" width="1.5" height="9.75"/>
			</g>
			<g>
				<circle fill="#CA797D" cx="606.878" cy="111.738" r="5.64"/>
			</g>
		</g>
	</g>
</g>
</svg>
