<?xml version="1.0" encoding="utf-8"?>
<!-- Generator: Adobe Illustrator 16.0.0, SVG Export Plug-In . SVG Version: 6.00 Build 0)  -->
<!DOCTYPE svg PUBLIC "-//W3C//DTD SVG 1.1//EN" "http://www.w3.org/Graphics/SVG/1.1/DTD/svg11.dtd">
<svg version="1.1" id="Isolation_Mode" xmlns="http://www.w3.org/2000/svg" xmlns:xlink="http://www.w3.org/1999/xlink" x="0px"
	 y="0px" width="614.128px" height="112.268px" viewBox="0 0 614.128 112.268" enable-background="new 0 0 614.128 112.268"
	 xml:space="preserve">
<g>
	<g>
		<g>
			<path fill="none" stroke="#CA797D" stroke-width="3" d="M0.75,106.678h44.205c-1.756-0.173-3.561-0.408-5.415-0.705
				c-4.426-0.714-8.469-1.833-12.13-3.357c0.307-2.238,0.813-4.402,1.527-6.486c0.709-2.082,1.625-4.195,2.746-6.33
				c3.15,1.119,6.214,2.235,9.305,2.669c32.549,4.564,38.751-10.059,38.751-17.893c0-2.846-0.433-5.542-1.296-8.086
				c-0.866-2.54-2.266-4.752-4.195-6.636c-1.935-1.881-4.451-3.357-7.553-4.423c-3.104-1.068-6.891-1.603-11.365-1.603
				c-3.154,0-6.256,0.255-9.307,0.762c-3.051,0.512-5.746,1.172-8.086,1.985l-1.524-1.375c0.304-8.947,0.634-17.872,0.99-26.773
				c0.354-8.899,0.737-17.874,1.145-26.928h51.87c0.203,1.122,0.33,2.213,0.383,3.281c0.048,1.068,0.076,2.162,0.076,3.279
				c0,1.22-0.028,2.417-0.076,3.585c-0.053,1.172-0.18,2.316-0.383,3.433H52.277l-0.914,27.155c1.93-0.405,3.889-0.658,5.874-0.762
				c1.982-0.099,3.532-0.152,4.653-0.152c5.084,0,9.709,0.712,13.882,2.135c4.17,1.425,7.729,3.537,10.679,6.332
				c2.949,2.8,5.238,6.206,6.866,10.221c1.625,4.02,2.44,8.62,2.44,13.808c0,6.408-1.119,11.953-3.357,16.629
				c-2.237,4.679-5.313,8.542-9.228,11.595c-2.319,1.805-4.888,3.336-7.706,4.59h533.304"/>
			<g>
				<rect y="101.803" fill="#CA797D" width="1.5" height="9.75"/>
			</g>
			<g>
				<circle fill="#CA797D" cx="608.488" cy="106.628" r="5.64"/>
			</g>
		</g>
	</g>
</g>
</svg>
