<?xml version="1.0" encoding="utf-8"?>
<!-- Generator: Adobe Illustrator 16.0.0, SVG Export Plug-In . SVG Version: 6.00 Build 0)  -->
<!DOCTYPE svg PUBLIC "-//W3C//DTD SVG 1.1//EN" "http://www.w3.org/Graphics/SVG/1.1/DTD/svg11.dtd">
<svg version="1.1" id="Layer_1" xmlns="http://www.w3.org/2000/svg" xmlns:xlink="http://www.w3.org/1999/xlink" x="0px" y="0px"
	 width="687px" height="458px" viewBox="0 0 687 458" enable-background="new 0 0 687 458" xml:space="preserve">
<g>
	<g>
		<path fill="#444444" d="M505.427,67.073C462.175,23.819,404.667,0,343.5,0S224.825,23.819,181.573,67.073
			C138.319,110.325,114.5,167.833,114.5,229s23.819,118.675,67.073,161.927C224.825,434.181,282.333,458,343.5,458
			s118.675-23.819,161.927-67.073C548.68,347.674,572.5,290.167,572.5,229S548.681,110.325,505.427,67.073z"/>
	</g>
</g>
<g enable-background="new    ">
	<path fill="#FFFFFF" d="M171.093,273.848c-1.484-1.535-2.225-3.427-2.225-5.678V164.279c0-2.25,0.767-4.144,2.302-5.678
		s3.376-2.302,5.524-2.302c2.249,0,4.144,0.767,5.678,2.302c1.535,1.535,2.302,3.429,2.302,5.678v95.91h55.552
		c2.249,0,4.144,0.768,5.678,2.303c1.535,1.534,2.302,3.429,2.302,5.678c0,2.251-0.767,4.143-2.302,5.678
		c-1.534,1.534-3.429,2.302-5.678,2.302h-63.531C174.443,276.149,172.575,275.382,171.093,273.848z"/>
	<path fill="#FFFFFF" d="M269.689,273.848c-1.534-1.535-2.302-3.427-2.302-5.678V164.279c0-2.353,0.768-4.271,2.302-5.755
		c1.535-1.482,3.427-2.225,5.678-2.225c2.353,0,4.271,0.743,5.755,2.225c1.481,1.484,2.226,3.402,2.226,5.755V268.17
		c0,2.251-0.744,4.143-2.226,5.678c-1.484,1.534-3.402,2.302-5.755,2.302C273.116,276.149,271.225,275.382,269.689,273.848z"/>
	<path fill="#FFFFFF" d="M316.262,273.924c-1.484-1.481-2.226-3.399-2.226-5.754V164.279c0-2.353,0.741-4.271,2.226-5.755
		c1.481-1.482,3.35-2.225,5.601-2.225c1.125,0,2.249,0.283,3.376,0.844c1.125,0.563,2.046,1.254,2.763,2.071l66.907,89.006v-83.941
		c0-2.353,0.768-4.271,2.302-5.755c1.534-1.482,3.427-2.225,5.678-2.225c2.249,0,4.117,0.743,5.602,2.225
		c1.481,1.484,2.225,3.402,2.225,5.755V268.17c0,2.354-0.743,4.272-2.225,5.754c-1.484,1.484-3.353,2.226-5.602,2.226
		c-1.127,0-2.277-0.23-3.452-0.69c-1.178-0.461-2.072-1.151-2.686-2.072l-66.908-89.005v83.788c0,2.251-0.743,4.143-2.225,5.678
		c-1.484,1.534-3.402,2.302-5.755,2.302C319.611,276.149,317.743,275.408,316.262,273.924z"/>
	<path fill="#FFFFFF" d="M443.705,273.848c-1.534-1.535-2.302-3.427-2.302-5.678V164.279c0-2.353,0.768-4.271,2.302-5.755
		c1.535-1.482,3.427-2.225,5.678-2.225h69.363c2.352,0,4.244,0.69,5.678,2.072c1.432,1.381,2.148,3.199,2.148,5.448
		c0,2.148-0.717,3.889-2.148,5.217c-1.434,1.331-3.326,1.995-5.678,1.995h-61.383v37.29h44.042c2.249,0,4.117,0.69,5.601,2.072
		c1.482,1.381,2.226,3.146,2.226,5.294c0,2.148-0.743,3.913-2.226,5.294c-1.483,1.381-3.352,2.072-5.601,2.072h-44.042v38.365
		h61.383c2.352,0,4.244,0.666,5.678,1.994c1.432,1.331,2.148,3.069,2.148,5.218c0,2.252-0.717,4.066-2.148,5.448
		c-1.434,1.381-3.326,2.071-5.678,2.071h-69.363C447.132,276.149,445.24,275.382,443.705,273.848z"/>
</g>
</svg>
