<?xml version="1.0" encoding="utf-8"?>
<!-- Generator: Adobe Illustrator 16.0.0, SVG Export Plug-In . SVG Version: 6.00 Build 0)  -->
<!DOCTYPE svg PUBLIC "-//W3C//DTD SVG 1.1//EN" "http://www.w3.org/Graphics/SVG/1.1/DTD/svg11.dtd">
<svg version="1.1" id="Layer_1" xmlns="http://www.w3.org/2000/svg" xmlns:xlink="http://www.w3.org/1999/xlink" x="0px" y="0px"
	 width="687px" height="458px" viewBox="0 0 687 458" enable-background="new 0 0 687 458" xml:space="preserve">
<g>
	<g>
		<path fill="#444444" d="M505.427,67.073C462.175,23.819,404.667,0,343.5,0S224.825,23.819,181.573,67.073
			C138.319,110.325,114.5,167.833,114.5,229s23.819,118.675,67.073,161.927C224.825,434.181,282.333,458,343.5,458
			s118.675-23.819,161.927-67.073C548.68,347.674,572.5,290.167,572.5,229S548.681,110.325,505.427,67.073z"/>
	</g>
</g>
<path fill="#FFFDFD" d="M395.538,117.731h-31.054c-25.416,0-46.093,20.678-46.093,46.094v34.934h-28.929
	c-7.236,0-13.101,5.864-13.101,13.1c0,7.236,5.865,13.1,13.101,13.1h28.929v121.297c0,7.236,5.865,13.102,13.101,13.102
	c7.235,0,13.1-5.864,13.1-13.102V224.959h44.76c7.234,0,13.101-5.864,13.101-13.1c0-7.236-5.865-13.1-13.101-13.1h-44.76v-34.934
	c0-10.969,8.924-19.893,19.893-19.893h31.054c7.235,0,13.101-5.865,13.101-13.1C408.637,123.596,402.771,117.731,395.538,117.731z"
	/>
</svg>
