<?xml version="1.0" encoding="utf-8"?>
<!-- Generator: Adobe Illustrator 16.0.0, SVG Export Plug-In . SVG Version: 6.00 Build 0)  -->
<!DOCTYPE svg PUBLIC "-//W3C//DTD SVG 1.1//EN" "http://www.w3.org/Graphics/SVG/1.1/DTD/svg11.dtd">
<svg version="1.1" id="Layer_1" xmlns="http://www.w3.org/2000/svg" xmlns:xlink="http://www.w3.org/1999/xlink" x="0px" y="0px"
	 width="687px" height="458px" viewBox="0 0 687 458" enable-background="new 0 0 687 458" xml:space="preserve">
<g>
	<g>
		<path fill="#444444" d="M505.427,67.073C462.175,23.819,404.667,0,343.5,0S224.825,23.819,181.573,67.073
			C138.319,110.325,114.5,167.833,114.5,229s23.819,118.675,67.073,161.927C224.825,434.181,282.333,458,343.5,458
			s118.675-23.819,161.927-67.073C548.68,347.674,572.5,290.167,572.5,229S548.681,110.325,505.427,67.073z"/>
	</g>
</g>
<g>
	<g>
		<path fill="#FFFFFF" d="M425.658,86.779H261.342c-33.119,0-60.062,26.944-60.062,60.062V311.16
			c0,33.117,26.944,60.062,60.062,60.062H425.66c33.117,0,60.062-26.944,60.062-60.062V146.842
			C485.721,113.723,458.777,86.779,425.658,86.779z M471.258,311.158c0,25.144-20.456,45.6-45.6,45.6H261.342
			c-25.144,0-45.6-20.456-45.6-45.6V146.842c0-25.144,20.456-45.6,45.6-45.6H425.66c25.143,0,45.599,20.456,45.599,45.6
			L471.258,311.158L471.258,311.158z"/>
	</g>
</g>
<g>
	<g>
		<path fill="#FFFFFF" d="M418.105,224.724c-2.139-38.047-33.1-68.655-71.167-70.372c-43.929-1.98-80.092,34.2-78.085,78.134
			c1.74,38.07,32.373,69.017,70.425,71.124c16.058,0.89,31.095-3.334,43.656-11.177c3.912-2.442,4.551-7.885,1.289-11.145
			c-0.035-0.035-0.068-0.068-0.104-0.104c-2.376-2.377-6.062-2.736-8.919-0.961c-9.384,5.832-20.478,9.16-32.344,9.037
			c-33.505-0.354-60.538-28.486-59.595-61.979c0.949-33.707,29.712-60.579,64.1-58.424c29.632,1.857,53.752,25.485,56.193,55.075
			c0.994,12.054-1.599,23.443-6.808,33.238c-1.491,2.806-1.031,6.246,1.215,8.492c0.036,0.037,0.074,0.074,0.11,0.111
			c3.375,3.375,9.084,2.581,11.338-1.625C415.656,252.498,418.91,239.016,418.105,224.724z"/>
	</g>
</g>
<g>
	<g>
		<circle fill="#FFFFFF" cx="420.637" cy="142.221" r="19.284"/>
	</g>
</g>
</svg>
