<?xml version="1.0" encoding="utf-8"?>
<!-- Generator: Adobe Illustrator 16.0.0, SVG Export Plug-In . SVG Version: 6.00 Build 0)  -->
<!DOCTYPE svg PUBLIC "-//W3C//DTD SVG 1.1//EN" "http://www.w3.org/Graphics/SVG/1.1/DTD/svg11.dtd">
<svg version="1.1" id="Capa_1" xmlns="http://www.w3.org/2000/svg" xmlns:xlink="http://www.w3.org/1999/xlink" x="0px" y="0px"
	 width="687px" height="458px" viewBox="0 0 687 458" enable-background="new 0 0 687 458" xml:space="preserve">
<g>
	<path fill="#444444" d="M343.5,0c-126.271,0-229,102.729-229,229s102.729,229,229,229s229-102.729,229-229S469.771,0,343.5,0z"/>
	<path fill="#FFFFFF" d="M396.538,104.731h-31.054c-25.415,0-46.093,20.678-46.093,46.094v34.934h-28.929
		c-7.236,0-13.101,5.864-13.101,13.1s5.865,13.1,13.101,13.1h28.929v121.297c0,7.236,5.865,13.101,13.101,13.101
		c7.235,0,13.1-5.864,13.1-13.101V211.959h44.759c7.235,0,13.101-5.864,13.101-13.1s-5.865-13.1-13.101-13.1h-44.759v-34.934
		c0-10.969,8.924-19.893,19.893-19.893h31.053c7.235,0,13.1-5.865,13.1-13.1C409.637,110.596,403.772,104.731,396.538,104.731z"/>
</g>
</svg>
